<svg xmlns="http://www.w3.org/2000/svg" width="223.48000000000002" height="35" viewBox="0 0 223.48000000000002 35"><rect class="svg__rect" x="0" y="0" width="115.31" height="35" fill="#DB0036"/><rect class="svg__rect" x="113.31" y="0" width="110.17" height="35" fill="#C10033"/><path class="svg__text" d="M15.69 22L14.22 22L14.22 13.47L16.14 13.47L18.60 20.01L21.06 13.47L22.97 13.47L22.97 22L21.49 22L21.49 19.19L21.64 15.43L19.12 22L18.06 22L15.55 15.43L15.69 19.19L15.69 22ZM28.49 22L26.95 22L30.17 13.47L31.50 13.47L34.73 22L33.18 22L32.49 20.01L29.18 20.01L28.49 22ZM30.83 15.28L29.60 18.82L32.07 18.82L30.83 15.28ZM41.14 22L38.69 22L38.69 13.47L41.21 13.47Q42.34 13.47 43.21 13.97Q44.09 14.48 44.57 15.40Q45.05 16.33 45.05 17.52L45.05 17.52L45.05 17.95Q45.05 19.16 44.57 20.08Q44.08 21.00 43.19 21.50Q42.30 22 41.14 22L41.14 22ZM40.17 14.66L40.17 20.82L41.14 20.82Q42.30 20.82 42.93 20.09Q43.55 19.36 43.56 17.99L43.56 17.99L43.56 17.52Q43.56 16.13 42.96 15.40Q42.35 14.66 41.21 14.66L41.21 14.66L40.17 14.66ZM55.09 22L49.51 22L49.51 13.47L55.05 13.47L55.05 14.66L51.00 14.66L51.00 17.02L54.50 17.02L54.50 18.19L51.00 18.19L51.00 20.82L55.09 20.82L55.09 22ZM66.65 22L64.68 13.47L66.15 13.47L67.47 19.88L69.10 13.47L70.34 13.47L71.96 19.89L73.27 13.47L74.74 13.47L72.77 22L71.35 22L69.73 15.77L68.07 22L66.65 22ZM80.38 22L78.90 22L78.90 13.47L80.38 13.47L80.38 22ZM86.87 14.66L84.23 14.66L84.23 13.47L91.00 13.47L91.00 14.66L88.34 14.66L88.34 22L86.87 22L86.87 14.66ZM96.24 22L94.75 22L94.75 13.47L96.24 13.47L96.24 17.02L100.05 17.02L100.05 13.47L101.53 13.47L101.53 22L100.05 22L100.05 18.21L96.24 18.21L96.24 22Z" fill="#FFFFFF"/><path class="svg__text" d="M128.92 22L126.49 22L130.20 13.60L132.54 13.60L136.26 22L133.79 22L133.13 20.37L129.58 20.37L128.92 22ZM131.35 15.93L130.27 18.61L132.43 18.61L131.35 15.93ZM142.74 22L140.41 22L140.41 13.60L142.37 13.60L146.08 18.07L146.08 13.60L148.40 13.60L148.40 22L146.45 22L142.74 17.52L142.74 22ZM153.14 17.80L153.14 17.80Q153.14 16.54 153.74 15.54Q154.33 14.55 155.40 13.99Q156.47 13.43 157.81 13.43L157.81 13.43Q158.99 13.43 159.93 13.83Q160.87 14.22 161.49 14.97L161.49 14.97L159.98 16.33Q159.13 15.40 157.95 15.40L157.95 15.40Q157.94 15.40 157.94 15.40L157.94 15.40Q156.86 15.40 156.20 16.06Q155.53 16.71 155.53 17.80L155.53 17.80Q155.53 18.50 155.84 19.04Q156.14 19.59 156.68 19.89Q157.22 20.20 157.91 20.20L157.91 20.20Q158.60 20.20 159.20 19.93L159.20 19.93L159.20 17.62L161.29 17.62L161.29 21.10Q160.57 21.61 159.64 21.89Q158.70 22.17 157.77 22.17L157.77 22.17Q156.45 22.17 155.39 21.61Q154.33 21.05 153.74 20.05Q153.14 19.06 153.14 17.80ZM166.22 18.26L166.22 18.26L166.22 13.60L168.60 13.60L168.60 18.19Q168.60 20.20 170.19 20.20L170.19 20.20Q171.77 20.20 171.77 18.19L171.77 18.19L171.77 13.60L174.12 13.60L174.12 18.26Q174.12 20.13 173.08 21.15Q172.03 22.17 170.17 22.17L170.17 22.17Q168.29 22.17 167.25 21.15Q166.22 20.13 166.22 18.26ZM185.59 22L179.20 22L179.20 13.60L181.58 13.60L181.58 20.11L185.59 20.11L185.59 22ZM191.42 22L189.00 22L192.71 13.60L195.05 13.60L198.77 22L196.30 22L195.64 20.37L192.09 20.37L191.42 22ZM193.86 15.93L192.78 18.61L194.94 18.61L193.86 15.93ZM205.30 22L202.92 22L202.92 13.60L206.76 13.60Q207.91 13.60 208.74 13.98Q209.58 14.35 210.04 15.06Q210.50 15.76 210.50 16.71L210.50 16.71Q210.50 17.62 210.07 18.30Q209.64 18.98 208.85 19.36L208.85 19.36L210.66 22L208.12 22L206.59 19.77L205.30 19.77L205.30 22ZM205.30 15.47L205.30 17.93L206.62 17.93Q207.35 17.93 207.72 17.61Q208.09 17.29 208.09 16.71L208.09 16.71Q208.09 16.12 207.72 15.79Q207.35 15.47 206.62 15.47L206.62 15.47L205.30 15.47Z" fill="#FFFFFF" x="126.31"/></svg>